Coordinates
version=1
nRows=11
nColumns=40
inDegrees=yes

Units are S.I. units (second, meters, Newtons, ...)
Angles are in degrees.

endheader
time	pelvis_tilt	pelvis_list	pelvis_rotation	pelvis_tx	pelvis_ty	pelvis_tz	hip_flexion_r	hip_adduction_r	hip_rotation_r	knee_angle_r	knee_angle_r_beta	ankle_angle_r	subtalar_angle_r	mtp_angle_r	hip_flexion_l	hip_adduction_l	hip_rotation_l	knee_angle_l	knee_angle_l_beta	ankle_angle_l	subtalar_angle_l	mtp_angle_l	lumbar_extension	lumbar_bending	lumbar_rotation	arm_flex_r	arm_add_r	arm_rot_r	elbow_flex_r	pro_sup_r	wrist_flex_r	wrist_dev_r	arm_flex_l	arm_add_l	arm_rot_l	elbow_flex_l	pro_sup_l	wrist_flex_l	wrist_dev_l
     12.34792857	     -4.08865015	     -3.89708485	     -2.61451629	      1.01875609	      0.92780008	      0.43474077	     23.75937338	     -2.25863472	    -12.71463930	     14.09210857	     14.09210857	      3.82419714	      5.24808234	      6.74254146	      4.65788220	     -5.87818248	    -11.50183653	     16.11670455	     16.11670455	     15.49581558	     -8.92587941	     -5.84900629	     -9.40473276	      3.66687175	      1.42661099	     -7.39167156	    -11.73251398	     -3.37997280	     31.96417873	     46.66645683	      0.00000000	      0.00000000	     22.95062145	    -19.71705458	     -5.50985760	     67.31787013	     46.65881208	      0.00000000	      0.00000000
     12.36085714	     -4.15241117	     -3.93796714	     -2.50893566	      1.02031495	      0.92694524	      0.43671287	     23.39678015	     -2.01649132	    -13.31064464	     14.27453213	     14.27453213	      3.73879999	      4.93375212	      6.58765474	      4.15712153	     -6.01491116	    -11.37727793	     15.92253463	     15.92253463	     15.79841615	     -8.83253845	     -5.87822108	     -9.15985620	      3.79625682	      1.42499068	     -7.14989261	    -11.80539948	     -3.39149982	     32.04399910	     46.66432888	      0.00000000	      0.00000000	     23.21886543	    -19.53824057	     -5.56687519	     67.53107818	     46.66992701	      0.00000000	      0.00000000
     12.37378571	     -3.91842187	     -3.91992950	     -2.44596789	      1.02240155	      0.92639558	      0.43889390	     22.55198061	     -1.76354318	    -13.48645359	     14.20473407	     14.20473407	      2.00529727	      3.99064139	      1.19362538	      3.23489258	     -6.12043429	    -11.59827117	     15.69697413	     15.69697413	     16.63335092	     -8.05223700	     -4.78931061	     -9.23649880	      3.85582086	      1.28851071	     -6.79857701	    -11.88685223	     -3.61014944	     32.26297053	     46.61976290	      0.00000000	      0.00000000	     22.87452511	    -18.86441170	     -7.59852101	     68.69761372	     46.88630915	      0.00000000	      0.00000000
     12.38671429	     -3.90297354	     -4.04837733	     -2.30378916	      1.02434623	      0.92566953	      0.44105666	     22.19020664	     -1.50579660	    -13.78573756	     14.82635461	     14.82635461	      2.14549741	      3.47842820	      0.90807982	      2.67356809	     -6.38003251	    -11.45606719	     15.59134858	     15.59134858	     16.92004362	     -8.02179133	     -4.77727868	     -9.01541257	      4.10676178	      1.32692097	     -6.41781206	    -12.04988293	     -3.62652878	     32.34366164	     46.61848625	      0.00000000	      0.00000000	     22.84791161	    -18.62059152	     -7.49324870	     68.73540462	     46.88142149	      0.00000000	      0.00000000
     12.39964286	     -3.81217802	     -3.97016002	     -2.25186034	      1.02639151	      0.92494479	      0.44342707	     22.03138559	     -1.42724656	    -13.36967664	     15.91595346	     15.91595346	      2.26076483	      2.03304262	     -0.16676625	      2.02095408	     -6.43324804	    -11.51206098	     15.51888744	     15.51888744	     17.33620768	     -7.83276365	     -4.37936229	     -8.88551002	      4.07429978	      1.43360603	     -5.98437170	    -12.18787327	     -3.66151500	     32.36116526	     46.61389177	      0.00000000	      0.00000000	     22.76081336	    -18.46612474	     -7.54664631	     68.87372310	     46.89634474	      0.00000000	      0.00000000
     12.41257143	     -3.68249865	     -4.14112483	     -2.10022486	      1.02851406	      0.92446399	      0.44584900	     21.65570247	     -1.13579165	    -13.25621084	     16.70584431	     16.70584431	      2.52563676	      1.21049676	     -0.82614636	      1.46257993	     -6.79706027	    -11.37535550	     15.68377809	     15.68377809	     17.68186207	     -7.80739537	     -4.15152378	     -8.80084255	      4.36623500	      1.51071906	     -5.48594780	    -12.43937724	     -3.73055478	     32.47137150	     46.61358661	      0.00000000	      0.00000000	     22.52728713	    -18.22818491	     -7.55834849	     68.88980931	     46.90019089	      0.00000000	      0.00000000
     12.42550000	     -3.54882630	     -4.23244032	     -1.96716980	      1.03062510	      0.92403513	      0.44841045	     21.42171360	     -0.90928064	    -12.81698096	     17.67359030	     17.67359030	      2.88543544	      0.04172310	     -1.62596712	      1.00976654	     -7.11668258	    -11.28118910	     16.05746895	     16.05746895	     18.07178209	     -7.74046551	     -3.78028578	     -8.72421042	      4.53893565	      1.55333149	     -4.86224117	    -12.66968960	     -3.82961830	     32.63934302	     46.61268757	      0.00000000	      0.00000000	     22.20106646	    -17.99407894	     -7.64853828	     68.90013916	     46.90983409	      0.00000000	      0.00000000
     12.43842857	     -3.48470538	     -4.35453085	     -1.83246658	      1.03265555	      0.92371777	      0.45124537	     21.08677611	     -0.47037040	    -11.89191336	     18.10550837	     18.10550837	      2.34565114	     -2.27990209	     -4.19788304	      0.96337740	     -7.65452461	    -11.60124902	     17.17239457	     17.17239457	     19.60402854	     -6.69877483	     -1.10181630	     -8.57827894	      4.70355309	      1.27233543	     -3.85677238	    -12.78007081	     -4.19377711	     32.62082349	     46.59972289	      0.00000000	      0.00000000	     21.28711221	    -17.71854544	     -8.66543068	     69.47296788	     47.02470022	      0.00000000	      0.00000000
     12.45135714	     -3.26927005	     -4.41862914	     -1.70843472	      1.03481477	      0.92390899	      0.45386198	     20.61655952	     -0.30275985	    -11.74836776	     18.70074280	     18.70074280	      2.97664734	     -2.55872644	     -4.51536599	      0.55447939	     -7.97179654	    -11.43174921	     17.75016653	     17.75016653	     19.61824417	     -6.89446221	     -1.10148097	     -8.57713917	      4.85610065	      1.45019614	     -3.11307377	    -13.04516022	     -4.24842743	     32.86245402	     46.59777246	      0.00000000	      0.00000000	     20.78507575	    -17.26298873	     -8.50054815	     69.27997734	     47.00775958	      0.00000000	      0.00000000
     12.46428571	     -3.23841928	     -4.50096982	     -1.50469429	      1.03651028	      0.92371469	      0.45669914	     20.58810383	     -0.08650439	    -11.35389646	     19.63711973	     19.63711973	      3.61437483	     -3.66118151	     -4.71251509	      0.92768911	     -8.48216079	    -11.13930415	     19.34948829	     19.34948829	     19.76474659	     -7.30189013	     -1.06115748	     -8.43243521	      4.96717140	      1.33678063	     -2.21233252	    -13.28733517	     -4.38145339	     33.26057204	     46.58799764	      0.00000000	      0.00000000	     20.22883254	    -17.22250927	     -8.60999536	     68.94478066	     47.01404353	      0.00000000	      0.00000000
     12.47721429	     -3.07040787	     -4.58325115	     -1.33327970	      1.03831989	      0.92407963	      0.45959392	     20.17539532	      0.16500366	    -11.09688620	     20.11892172	     20.11892172	      4.22904009	     -4.29623240	     -4.75582619	      1.17779187	     -8.99787480	    -10.86521548	     20.99005552	     20.99005552	     19.70481281	     -7.70594337	     -1.07626481	     -8.44114093	      5.08259224	      1.34208894	     -1.25766193	    -13.56861981	     -4.50506531	     33.70413484	     46.57659672	      0.00000000	      0.00000000	     19.54057017	    -16.96181126	     -8.69262887	     68.61835076	     47.01683278	      0.00000000	      0.00000000
